<svg xmlns="http://www.w3.org/2000/svg" viewBox="0 0 145 46">
<g>
	<path class="st0" d="M31.7,29.6c-0.1,0.4-0.2,0.8-0.2,1.1c0,0.3,0,0.6,0.1,0.8c0.1,0.2,0.2,0.4,0.3,0.5c0.1,0.1,0.2,0.2,0.2,0.3
		c0.3,0.3,0.4,0.6,0.4,0.9c0,0.1,0,0.2-0.1,0.4c-0.1,0.4-0.4,0.7-0.8,0.8c-0.4,0.2-1,0.2-1.8,0.2H19.6c-0.6,0-1.1-0.1-1.4-0.3
		c-0.3-0.2-0.5-0.5-0.5-0.8c0-0.2,0-0.4,0.1-0.6c0.1-0.2,0.2-0.4,0.4-0.5c0.2-0.1,0.4-0.3,0.7-0.5c0.5-0.3,0.8-0.5,1.1-0.9
		c0.3-0.3,0.5-0.8,0.7-1.6l1.3-4.3c-0.8,0.5-1.6,0.7-2.5,0.7c-1.3,0-2.6-0.5-3.9-1.5l-2.7,5.9c-0.8,1.7-1.6,2.8-2.5,3.5
		c-0.9,0.7-2,1-3.3,1c-1.6,0-2.8-0.5-3.7-1.4c-0.9-0.9-1.3-2-1.3-3.3c0-0.3,0.1-0.8,0.2-1.3c0.3-1.2,0.8-2.1,1.7-2.7
		c0.8-0.6,1.7-0.9,2.7-0.9c1.1,0,2.1,0.4,3.1,1.3l2.6-5.3c-0.7-0.6-1.3-0.9-2-0.9c-0.7,0-1.4,0.3-2.1,0.8c-0.1,0.1-0.2,0.2-0.5,0.3
		c-0.2,0.1-0.5,0.2-0.7,0.2c-0.3,0-0.7-0.2-1-0.5c-0.4-0.3-0.7-0.8-1-1.4c-0.3-0.6-0.4-1.2-0.4-1.9c0-1.5,0.5-2.7,1.5-3.7
		c1-1,2.3-1.5,3.9-1.5c1,0,2,0.2,2.7,0.7c0.8,0.5,1.5,1.2,2.2,2l1.5-3c1.2-2.5,2.6-4.3,4.2-5.4c1.6-1.1,3.7-1.7,6.3-1.7
		c3,0,5.2,0.6,6.9,1.8c1.6,1.2,2.4,2.9,2.4,5c0,0.9-0.1,1.8-0.4,2.8L31.7,29.6z M25.6,12.8c0-0.6-0.2-1-0.5-1.3
		c-0.3-0.3-0.8-0.4-1.4-0.4c-0.7,0-1.3,0.2-1.7,0.6c-0.4,0.4-0.9,1.1-1.4,2.2L18,19.6c0.5,0.6,1,1,1.5,1.3c0.5,0.3,1,0.5,1.6,0.5
		c0.6,0,1.1-0.1,1.5-0.4c0.4-0.2,0.8-0.6,1.1-1.1l1.8-6C25.6,13.5,25.6,13.2,25.6,12.8z"/>
	<path class="st0" d="M54,3.6c0.8,0.6,1.2,1.5,1.2,2.6c0,0.6-0.1,1.3-0.3,1.9l-6.8,22.2C48,30.5,48,30.9,48,31.1
		c0,0.4,0.1,0.7,0.2,0.9s0.3,0.4,0.6,0.6c0.2,0.2,0.3,0.4,0.4,0.5c0.1,0.1,0.1,0.3,0,0.5c-0.1,0.4-0.4,0.7-0.9,0.8
		c-0.4,0.2-1.1,0.3-2,0.3h-9.9c-0.8,0-1.3-0.1-1.7-0.4c-0.3-0.2-0.5-0.6-0.3-1c0.1-0.3,0.4-0.7,0.9-0.9c0.4-0.2,0.8-0.5,1.1-0.8
		c0.3-0.3,0.5-0.8,0.7-1.5l6.6-21.7C43.9,8.2,44,7.9,44,7.8c0-0.3-0.1-0.6-0.2-0.8c-0.2-0.2-0.4-0.4-0.6-0.6
		c-0.3-0.2-0.5-0.4-0.6-0.6c-0.1-0.2-0.2-0.4-0.1-0.7c0.2-0.7,1.1-1.2,2.7-1.7c1.7-0.5,3.4-0.7,5.2-0.7C52,2.6,53.2,2.9,54,3.6z"/>
	<path class="st0" d="M81.2,13.8c1.3,1.5,1.9,3.5,1.9,6c0,1.4-0.2,2.8-0.6,4.3c-0.9,3.6-2.5,6.3-4.9,8.2c-2.4,1.9-5.1,2.8-8.3,2.8
		c-2,0-3.7-0.4-5.2-1.3l-1.4,4.7c-0.1,0.3-0.2,0.6-0.2,0.9c0,0.3,0.1,0.6,0.2,0.8c0.1,0.2,0.3,0.4,0.6,0.6c0.2,0.2,0.4,0.4,0.5,0.6
		c0.1,0.1,0.1,0.3,0,0.5c-0.1,0.4-0.4,0.6-0.8,0.8S61.9,43,61,43h-10c-0.8,0-1.3-0.1-1.6-0.4c-0.3-0.2-0.4-0.6-0.3-0.9
		c0.1-0.2,0.2-0.4,0.3-0.6s0.3-0.3,0.6-0.4c0.4-0.3,0.8-0.6,1-0.9c0.3-0.3,0.5-0.8,0.7-1.5l6.3-20.8c0.1-0.3,0.1-0.5,0.1-0.7
		c0-0.3-0.1-0.6-0.2-0.8c-0.1-0.2-0.4-0.4-0.7-0.6c-0.3-0.2-0.5-0.4-0.6-0.6c-0.1-0.2-0.1-0.4,0-0.7c0.2-0.7,1.1-1.3,2.7-1.8
		c1.7-0.5,3.4-0.8,5.2-0.8c1.3,0,2.3,0.3,3.2,1c0.8,0.6,1.3,1.5,1.4,2.7c2-2.5,4.2-3.8,6.7-3.8C78.1,11.5,79.9,12.3,81.2,13.8z
		 M71.9,19.1c0-0.6-0.1-1-0.3-1.2s-0.5-0.3-0.8-0.3c-0.3,0-0.6,0.1-1,0.4c-0.4,0.2-0.8,0.7-1.2,1.2l-3.4,11.4
		c0.4,0.3,0.8,0.5,1.3,0.5c0.8,0,1.5-0.4,2.2-1.3c0.7-0.9,1.4-2.7,2.2-5.4C71.6,21.9,71.9,20.1,71.9,19.1z"/>
	<path class="st0" d="M110.7,28.7c-0.1,0.1-0.1,0.3-0.1,0.5c0,0.2,0,0.4,0.2,0.5c0.1,0.1,0.2,0.2,0.4,0.2c0.3,0,0.6-0.2,0.9-0.5
		c0.2-0.3,0.4-0.5,0.5-0.5c0.1,0,0.3,0.1,0.3,0.3c0.1,0.2,0.1,0.4,0.1,0.7c0,0.8-0.2,1.7-0.8,2.5c-0.6,0.8-1.4,1.4-2.5,2
		c-1.1,0.5-2.5,0.8-4,0.8c-1.9,0-3.4-0.4-4.6-1.3c-1.1-0.9-1.7-2.1-1.7-3.5c0-1.1,0.3-2.3,0.8-3.6l2.4-6.3c0.1-0.4,0.2-0.7,0.2-0.9
		c0-0.4-0.1-0.7-0.4-0.9c-0.2-0.2-0.5-0.3-0.9-0.3c-0.5,0-1.1,0.3-1.7,0.8c-0.6,0.5-1,1.3-1.4,2.5v-0.1l-2.7,8.8
		c-0.1,0.3-0.1,0.7-0.1,0.9c0,0.4,0.1,0.7,0.2,0.9s0.3,0.4,0.6,0.6c0.2,0.2,0.3,0.4,0.4,0.5c0.1,0.1,0.1,0.3,0,0.5
		c-0.1,0.4-0.4,0.7-0.9,0.8s-1.1,0.3-2,0.3h-9.9c-0.8,0-1.3-0.1-1.7-0.4c-0.3-0.2-0.5-0.6-0.3-1c0.1-0.3,0.4-0.7,0.9-0.9
		c0.4-0.2,0.8-0.5,1.1-0.8c0.3-0.3,0.5-0.8,0.7-1.5l6.6-21.7c0.1-0.3,0.1-0.5,0.1-0.7c0-0.3-0.1-0.6-0.2-0.8
		c-0.2-0.2-0.4-0.4-0.6-0.6c-0.3-0.2-0.5-0.4-0.6-0.6c-0.1-0.2-0.2-0.4-0.1-0.7c0.2-0.7,1.1-1.2,2.7-1.7s3.4-0.7,5.2-0.7
		c1.7,0,2.9,0.3,3.7,1c0.8,0.6,1.2,1.5,1.2,2.6c0,0.6-0.1,1.3-0.3,1.9l-2.3,7.7c1.1-1.5,2.3-2.5,3.6-3.1c1.3-0.6,2.6-0.9,4.1-0.9
		c1.8,0,3.2,0.5,4.3,1.6c1.1,1.1,1.6,2.5,1.6,4.2c0,0.9-0.1,1.8-0.4,2.7L110.7,28.7z"/>
	<path class="st0" d="M138.9,13.6c2,1.2,3,3.1,3,5.6c0,1-0.2,2-0.5,3.3l-1.8,6c0,0.1,0,0.3,0,0.4c0,0.5,0.2,0.7,0.6,0.7
		c0.3,0,0.6-0.2,0.9-0.5c0.2-0.3,0.4-0.5,0.5-0.5c0.1,0,0.3,0.1,0.4,0.3c0.1,0.2,0.2,0.4,0.2,0.7c0,0.8-0.3,1.6-0.9,2.4
		c-0.6,0.8-1.5,1.5-2.5,2c-1,0.5-2.2,0.8-3.4,0.8c-1.5,0-2.8-0.3-3.9-0.8c-1.1-0.5-1.8-1.4-2.2-2.4c-0.9,1-1.9,1.9-3.1,2.4
		c-1.2,0.6-2.5,0.8-3.8,0.8c-1.5,0-2.8-0.3-3.9-0.9c-1-0.6-1.8-1.4-2.3-2.3c-0.5-0.9-0.8-1.9-0.8-3c0-0.5,0-0.9,0.1-1.3
		c0.5-2,1.5-3.5,3-4.5c1.5-1,3.4-1.5,5.5-1.5c2.4,0,4.8,0.4,7.1,1.1l1.1-2.9c0.4-1.2,0.6-2.2,0.6-2.8c0-0.7-0.3-1.2-0.7-1.6
		c-0.4-0.3-1.1-0.5-2-0.5c0.2,0.5,0.3,0.9,0.3,1.4c0,1.1-0.4,2-1.2,2.8c-0.8,0.8-2,1.2-3.5,1.2c-1.4,0-2.5-0.3-3.3-0.9
		c-0.8-0.6-1.2-1.4-1.2-2.3c0-1.4,0.8-2.7,2.4-3.6c1.6-1,4.1-1.4,7.4-1.4C134.3,11.7,136.9,12.3,138.9,13.6z M126.5,25.8
		c-0.5,0.6-0.8,1.3-0.8,2c0,0.5,0.1,0.8,0.3,1.1c0.2,0.3,0.5,0.4,0.9,0.4c0.4,0,0.8-0.2,1.2-0.5c0.4-0.3,0.8-0.8,1-1.4l0.9-2.6
		c-0.5-0.1-1-0.1-1.7-0.1C127.7,24.9,127,25.2,126.5,25.8z"/>
</g>
</svg>
