<svg xmlns="http://www.w3.org/2000/svg" width="50" height="50" viewBox="0 0 50 50">
    <path fill="#000" fill-rule="nonzero" d="M13.418 25c0 1.403.84 4.02 2.962 4.848l-4.444 3.233c-.898.166-1.481 1.14-1.481 3.232 0 1.9 1.332 3.232 2.963 3.232h11.851c1.627 0 2.963-1.343 2.963-3.232 0-2.105-.595-3.072-1.481-3.232l-4.445-3.233c2.125-.832 2.963-3.446 2.963-4.848 0-3.777-2.653-6.465-5.926-6.465-3.272 0-5.925 2.688-5.925 6.465zm20.269 11.313c0 4.788-3.663 8.687-8.418 8.687H13.418C8.658 45 5 41.112 5 36.313c0-3.371 1.066-6.266 3.563-7.732a11.247 11.247 0 0 1-.6-3.581c0-6.642 4.947-11.92 11.38-11.92 6.434 0 11.38 5.278 11.38 11.92 0 1.182-.201 2.404-.599 3.58 2.491 1.464 3.563 4.363 3.563 7.733zm-1.47.606v-5.454h4.365c1.627 0 2.963-1.344 2.963-3.233 0-2.105-.595-3.072-1.481-3.232l-4.444-3.232c2.124-.833 2.962-3.447 2.962-4.849 0-3.777-2.653-6.464-5.925-6.464-3.215 0-5.831 2.592-5.924 6.262h-5.455C19.377 10.17 24.288 5 30.657 5c6.433 0 11.38 5.277 11.38 11.92 0 1.181-.202 2.403-.6 3.579C43.928 21.964 45 24.862 45 28.232c0 4.789-3.663 8.687-8.418 8.687h-4.364z"/>
</svg>
