<svg xmlns="http://www.w3.org/2000/svg" width="50" height="50" viewBox="0 0 50 50">
    <path fill="#000" fill-rule="nonzero" d="M27.548 34.833h7.312c2.97 0 5.378-2.221 5.378-5.213V17.18c0-2.993-2.408-5.418-5.378-5.418H15.14c-2.97 0-5.378 2.425-5.378 5.418v14.045c0 2.106 1.708 3.608 3.798 3.608h5.67l-.014 4.501 8.332-4.501zM45 29.272c0 5.726-4.672 10.368-10.435 10.368h-5.861L13.889 47v-7.36C8.979 39.64 5 35.686 5 30.808v-13.44C5 11.642 9.672 7 15.435 7h19.13C40.328 7 45 11.642 45 17.368v11.904zM18.074 17.544h13.852c1.435 0 2.598 1.073 2.598 2.396s-1.163 2.396-2.598 2.396H18.074c-1.435 0-2.598-1.073-2.598-2.396s1.163-2.396 2.598-2.396zm.055 7.668h7.075c1.465 0 2.653 1.073 2.653 2.396 0 1.324-1.188 2.396-2.653 2.396H18.13c-1.465 0-2.653-1.072-2.653-2.396 0-1.323 1.188-2.396 2.653-2.396z"/>
</svg>
