<svg xmlns="http://www.w3.org/2000/svg" width="50" height="50" viewBox="0 0 50 50">
    <path fill="#000" fill-rule="nonzero" d="M17.568 38.015L13.51 34.06l-6.088 5.271c-1.184 1.028-3.312.915-4.735-.658-1.058-1.103-.94-3.159.677-4.613l6.764-5.93c1.777-1.412 4.68-1.411 6.764 0l4.058 3.954 8.117-11.202c1.54-2.136 4.696-2.63 6.764-1.317.636.571 1.024.947 1.353 1.317L47.33 34.72c1.129 1.416.783 3.448-.676 4.612-1.56.931-3.663.597-4.735-.658l-8.793-11.86-8.117 10.542c.043-.042-.07.093 0 0-2.05 2.228-5.24 2.396-7.44.659zm-5.411-19.108c-2.242 0-4.059-1.77-4.059-3.295C8.098 12.77 9.915 11 12.157 11c2.241 0 4.058 1.77 4.058 4.612 0 1.525-1.817 3.295-4.058 3.295z"/>
</svg>
