<svg xmlns="http://www.w3.org/2000/svg" width="224" height="101" viewBox="0 0 224 101">
    <g fill="none" fill-rule="nonzero">
        <path fill="#F0F2F6" d="M145.031 38.524C134.801 34.311 123.583 32 111.893 32c-11.937 0-23.382 2.41-33.783 6.794L62.019 10.923C77.239 3.889 94.186 0 111.893 0c17.46 0 34.184 3.781 49.242 10.632L145.03 38.524zm2.772 1.2l16.056-27.81c27.526 13.383 49.14 37.161 58.94 66.805 2.772 8.39-1.781 17.44-10.171 20.213-8.39 2.774-17.44-1.78-20.213-10.17-7.262-21.97-23.69-39.549-44.612-49.039zm-72.453.29C54.585 49.637 38.336 67.26 31.226 89.209c-2.724 8.406-11.746 13.013-20.152 10.29C2.667 96.776-1.94 87.753.783 79.347c9.39-28.986 30.065-52.436 56.548-66.13.654-.339 1.312-.67 1.972-.997L75.35 40.014z"/>
        <path fill="#41D35C" d="M111.893 32c-11.937 0-23.382 2.41-33.783 6.794L62.019 10.923C77.239 3.889 94.186 0 111.893 0c17.46 0 34.184 3.781 49.242 10.632L145.03 38.524C134.801 34.311 123.583 32 111.893 32zM31.226 88.989c-2.724 8.406-11.746 13.013-20.152 10.29C2.667 96.556-1.94 87.533.783 79.127c9.39-28.986 30.065-52.436 56.548-66.13.654-.339 1.312-.67 1.972-.997L75.35 39.794C54.585 49.417 38.336 67.04 31.226 88.989zm160.899 0c2.723 8.406 11.745 13.013 20.152 10.29 8.406-2.723 13.014-11.746 10.29-20.152-9.39-28.986-30.064-52.436-56.548-66.13-.654-.339-1.311-.67-1.972-.997L148 39.794c20.765 9.623 37.015 27.246 44.125 49.195z"/>
    </g>
</svg>
