<svg xmlns="http://www.w3.org/2000/svg" width="24" height="24" viewBox="0 0 24 24">
    <path fill="#274351" fill-rule="nonzero" d="M2 14.854l2.666-2.015c.898-.68 2.23-.613 3.038.152l2.709 2.559 5.798-5.48c.846-.8 2.253-.83 3.142-.068.039.034.039.034.076.069L22 12.5v2.9l-4.18-3.95-5.798 5.48-.077.068c-.888.762-2.295.731-3.141-.069L6.095 14.37 2 17.466v-2.612zM6.5 9a1.5 1.5 0 1 1 0-3 1.5 1.5 0 0 1 0 3zM4 2h16c1.814 0 3 1.313 3 3v14c0 1.687-1.186 3-3 3H4c-1.814 0-3-1.313-3-3V5c0-1.687 1.186-3 3-3zM3 4v16h18V4H3z"/>
</svg>
