<svg xmlns="http://www.w3.org/2000/svg" width="50" height="50" viewBox="0 0 50 50">
    <path fill="#000" fill-rule="nonzero" d="M40.302 28.898l-.818-.453-2.4-4.447c.629-1.336.96-2.65.96-3.916 0-4.923-2.291-7.796-5.411-7.796-1.77 0-3.344.915-4.327 2.244l-4.176 5.647-4.175-5.647c-.983-1.33-2.557-2.244-4.327-2.244-3.119 0-5.41 2.87-5.41 7.796 0 5.074 5.328 10.941 13.913 15.817l.48-.276 5.035 2.789.119.22a63.11 63.11 0 0 1-5.635 3.254C14.752 37.08 5 29.313 5 20.082 5 12.571 9.263 7 15.628 7c1.686 0 3.18.4 4.459 1.015l-.132.177 4.175 3.169 4.176-3.17-.132-.176A10.202 10.202 0 0 1 32.633 7c6.375 0 10.628 5.582 10.628 13.082 0 3.127-1.117 6.085-2.96 8.816zm-2.048 8.268L34.565 44l-3.689-6.834-6.746-3.737 6.746-3.738 3.69-6.834 3.688 6.834L45 33.429l-6.746 3.737z"/>
</svg>
