<svg version="1.1" id="Layer_1" xmlns="http://www.w3.org/2000/svg" xmlns:xlink="http://www.w3.org/1999/xlink" x="0px" y="0px" viewBox="0 0 32 32" xml:space="preserve">
<g>
	<path class="st0zcsd42342sjfdhg32edf" d="M7.1,13H6c-2.2,0-4-1.8-4-4V4h5"/>
	<path class="st0zcsd42342sjfdhg32edf" d="M24.9,13H26c2.2,0,4-1.8,4-4V4h-5"/>
	<line class="st0zcsd42342sjfdhg32edf" x1="16" y1="26" x2="16" y2="21"/>
	<path class="st0zcsd42342sjfdhg32edf" d="M16,21L16,21c-5,0-9-4-9-9V2h18v10C25,17,21,21,16,21z"/>
	<path class="st0zcsd42342sjfdhg32edf" d="M23,30H9v0c0-2.2,1.8-4,4-4h6C21.2,26,23,27.8,23,30L23,30z"/>
</g>
</svg>
