<svg xmlns="http://www.w3.org/2000/svg" x="0px" y="0px" viewBox="0 0 56 56">
  <path d="M28.1,0.6C13,0.6,0.8,12.9,0.8,28c0,0.3,0,0.5,0,0.8c0,0.6,0.3,1.1,0.7,1.5c0.4,0.4,0.9,0.5,1.4,0.5
	c0.6,0,1.1-0.2,1.5-0.7c0.4-0.4,0.6-0.9,0.6-1.5c0-0.2,0-0.4,0-0.7c0-12.8,10.4-23.2,23.2-23.2S51.3,15.2,51.3,28
	c0,12.8-10.4,23.2-23.2,23.2c-7.8,0-15-3.9-19.4-10.4l9.8-9.7l5.5,5.5c0.8,0.8,2.2,0.8,3,0l9-8.9v1.6c0,1.2,0.9,2.1,2,2.1
	s2-0.9,2-2.1v-6c0-1.7-0.8-2.5-2.5-2.5h-6.2c-1.2,0-2.1,0.9-2.1,2s0.9,2,2.1,2h1.8l-7.7,7.5L20,26.8c-0.8-0.8-2.1-0.8-2.9-0.1
	L4.7,39c-0.7,0.7-0.8,1.7-0.3,2.5c4.9,8.5,14,13.8,23.8,13.8c15.1,0,27.4-12.3,27.4-27.4C55.5,12.9,43.2,0.6,28.1,0.6z"
  />
</svg>
